<?xml version="1.0" encoding="utf-8"?>
<!-- Designed by Vexels.com - 2016 All Rights Reserved - https://vexels.com/terms-and-conditions/  -->

<svg version="1.0" id="Capa_1" xmlns="http://www.w3.org/2000/svg" xmlns:xlink="http://www.w3.org/1999/xlink" x="0px" y="0px"
	 width="1200px" height="1199.999px" viewBox="0 0 1200 1199.999" enable-background="new 0 0 1200 1199.999" xml:space="preserve">
<g>
	<path fill="#1A1A1A" stroke="#1A1A1A" stroke-miterlimit="10" d="M1084.549,475.525l-0.172,0.029
		c-2.313-15.392-15.47-27.231-31.506-27.231c-17.665,0-31.985,14.32-31.985,31.985c0,0.783,0.175,1.517,0.23,2.287l-0.382,0.02
		l0.699,3.117c0.145,0.848,0.347,1.664,0.558,2.486l3.693,16.469c6.98,31.137,10.519,63.201,10.519,95.309
		c0,240.526-195.678,436.21-436.198,436.21c-240.526,0-436.207-195.684-436.207-436.21s195.681-436.204,436.207-436.204
		c101.091,0,199.179,35.515,277.265,100.012l-46.019,57.057l180.673,21.307l-55.121-176.973l-39.496,48.969
		C827.914,140.541,715.628,99.999,600.004,99.999c-275.703,0-500.003,224.297-500.003,499.997
		c0,275.706,224.301,500.003,500.003,500.003c275.697,0,499.994-224.298,499.994-500.003c0-35.659-3.888-71.536-11.553-106.629
		L1084.549,475.525z"/>
</g>
</svg>
